<?xml version="1.0" encoding="UTF-8"?>
<!-- Generated by Pixelmator Pro 3.5.8 -->
<svg width="46" height="51" viewBox="0 0 46 51" xmlns="http://www.w3.org/2000/svg">
    <g id="blocknotificationerror">
        <path id="path2" fill="#d9d9d9" stroke="none" d="M 22.5 29 C 29.403559 29 35 23.403559 35 16.5 C 35 9.596443 29.403559 4 22.5 4 C 15.596441 4 10 9.596443 10 16.5 C 10 23.403559 15.596441 29 22.5 29 Z M 22.5 24 C 21.671574 24 21 23.328426 21 22.5 C 21 21.671574 21.671574 21 22.5 21 C 23.328426 21 24 21.671574 24 22.5 C 24 23.328426 23.328426 24 22.5 24 Z M 24 18.5 C 24 19.328426 23.328426 20 22.5 20 C 21.671574 20 21 19.328426 21 18.5 L 21 10.5 C 21 9.671574 21.671574 9 22.5 9 C 23.328426 9 24 9.671574 24 10.5 Z"/>
    </g>
</svg>
