<svg width="50" height="50" viewBox="0 0 50 50" fill="none" xmlns="http://www.w3.org/2000/svg">
<g clip-path="url(#clip0_2_2)">
<path d="M50 0H0V50H50V0Z" fill="#E9E9E9"/>
<path d="M50 0H0V50H50V0Z" fill="#E9E9E9"/>
<path d="M18 15V14C18 13.7348 18.1054 13.4804 18.2929 13.2929C18.4804 13.1054 18.7348 13 19 13H36C36.2652 13 36.5196 13.1054 36.7071 13.2929C36.8946 13.4804 37 13.7348 37 14V31C37 31.2652 36.8946 31.5196 36.7071 31.7071C36.5196 31.8946 36.2652 32 36 32H35" stroke="#808080" stroke-linecap="round" stroke-linejoin="round"/>
<path d="M16 17V16C16 15.7348 16.1054 15.4804 16.2929 15.2929C16.4804 15.1054 16.7348 15 17 15H34C34.2652 15 34.5196 15.1054 34.7071 15.2929C34.8946 15.4804 35 15.7348 35 16V33C35 33.2652 34.8946 33.5196 34.7071 33.7071C34.5196 33.8946 34.2652 34 34 34H33" stroke="#808080" stroke-linecap="round" stroke-linejoin="round"/>
<path d="M32 17H15C14.4477 17 14 17.4477 14 18V35C14 35.5523 14.4477 36 15 36H32C32.5523 36 33 35.5523 33 35V18C33 17.4477 32.5523 17 32 17Z" stroke="#808080" stroke-linecap="round" stroke-linejoin="round"/>
<path d="M23.5 22.5C24.0523 22.5 24.5 22.0523 24.5 21.5C24.5 20.9477 24.0523 20.5 23.5 20.5C22.9477 20.5 22.5 20.9477 22.5 21.5C22.5 22.0523 22.9477 22.5 23.5 22.5Z" fill="#0066BD"/>
<path d="M28.5 27.5C29.0523 27.5 29.5 27.0523 29.5 26.5C29.5 25.9477 29.0523 25.5 28.5 25.5C27.9477 25.5 27.5 25.9477 27.5 26.5C27.5 27.0523 27.9477 27.5 28.5 27.5Z" fill="#0066BD"/>
<path d="M23.5 32.5C24.0523 32.5 24.5 32.0523 24.5 31.5C24.5 30.9477 24.0523 30.5 23.5 30.5C22.9477 30.5 22.5 30.9477 22.5 31.5C22.5 32.0523 22.9477 32.5 23.5 32.5Z" fill="#0066BD"/>
<path d="M27.036 23.964C27.5883 23.964 28.036 23.5163 28.036 22.964C28.036 22.4117 27.5883 21.964 27.036 21.964C26.4837 21.964 26.036 22.4117 26.036 22.964C26.036 23.5163 26.4837 23.964 27.036 23.964Z" fill="#0066BD"/>
<path d="M19.964 31.036C20.5163 31.036 20.964 30.5883 20.964 30.036C20.964 29.4837 20.5163 29.036 19.964 29.036C19.4117 29.036 18.964 29.4837 18.964 30.036C18.964 30.5883 19.4117 31.036 19.964 31.036Z" fill="#0066BD"/>
<path d="M18.5 27.5C19.0523 27.5 19.5 27.0523 19.5 26.5C19.5 25.9477 19.0523 25.5 18.5 25.5C17.9477 25.5 17.5 25.9477 17.5 26.5C17.5 27.0523 17.9477 27.5 18.5 27.5Z" fill="#0066BD"/>
<path d="M27.036 31.036C27.5883 31.036 28.036 30.5883 28.036 30.036C28.036 29.4837 27.5883 29.036 27.036 29.036C26.4837 29.036 26.036 29.4837 26.036 30.036C26.036 30.5883 26.4837 31.036 27.036 31.036Z" fill="#0066BD"/>
<path d="M19.964 23.964C20.5163 23.964 20.964 23.5163 20.964 22.964C20.964 22.4117 20.5163 21.964 19.964 21.964C19.4117 21.964 18.964 22.4117 18.964 22.964C18.964 23.5163 19.4117 23.964 19.964 23.964Z" fill="#0066BD"/>
</g>
<defs>
<clipPath id="clip0_2_2">
<rect width="50" height="50" fill="white"/>
</clipPath>
</defs>
</svg>
