<?xml version="1.0" encoding="UTF-8"?>
<!-- Generated by Pixelmator Pro 3.5.8 -->
<svg width="38" height="45" viewBox="0 0 38 45" xmlns="http://www.w3.org/2000/svg">
    <g id="notificationslicingcomplete">
        <path id="path1" fill="#0066bd" stroke="none" d="M 18.5 1 C 11.596441 1 6 6.596443 6 13.5 C 6 20.403559 11.596441 26 18.5 26 C 25.403559 26 31 20.403559 31 13.5 C 31 6.596443 25.403559 1 18.5 1 Z M 25.356001 11.192001 L 17.450001 17.660999 C 17.367365 17.719345 17.278889 17.768946 17.186001 17.809 C 17.135912 17.8416 17.083807 17.870993 17.029999 17.896999 C 16.861176 17.962091 16.681934 17.995975 16.500999 17.997 L 16.500999 17.997 C 16.324078 17.994818 16.148975 17.960949 15.984 17.896999 C 15.962 17.889 15.94 17.884001 15.918 17.875 C 15.756782 17.805094 15.60918 17.707256 15.482 17.586 C 15.47 17.573999 15.454 17.570999 15.441 17.559 L 12.441 14.559 C 11.855026 13.973026 11.855026 13.022974 12.441 12.437 C 13.026974 11.851025 13.977026 11.851025 14.563 12.437 L 16.603001 14.477001 L 23.457001 8.869999 C 24.098202 8.345329 25.043329 8.439796 25.568001 9.081001 C 26.09267 9.722202 25.998203 10.667328 25.357 11.192001 Z"/>
        <linearGradient id="linearGradient1" x1="35.071814" y1="35" x2="3" y2="35" gradientUnits="userSpaceOnUse">
            <stop offset="1e-05" stop-color="#00cbff" stop-opacity="1"/>
            <stop offset="1" stop-color="#6850ff" stop-opacity="1"/>
        </linearGradient>
    </g>
</svg>
