<?xml version="1.0" encoding="UTF-8"?>
<!-- Generated by Pixelmator Pro 3.5.8 -->
<svg width="37" height="46" viewBox="0 0 37 46" xmlns="http://www.w3.org/2000/svg">
    <g id="question">
        <linearGradient id="linearGradient1" x1="34.071814" y1="35" x2="2" y2="35" gradientUnits="userSpaceOnUse">
            <stop offset="1e-05" stop-color="#00cbff" stop-opacity="1"/>
            <stop offset="1" stop-color="#6850ff" stop-opacity="1"/>
        </linearGradient>
        <path id="path1" fill="#ff6f00" stroke="none" d="M 17.5 26 C 24.403559 26 30 20.403559 30 13.5 C 30 6.596443 24.403559 1 17.5 1 C 10.596441 1 5 6.596443 5 13.5 C 5 20.403559 10.596441 26 17.5 26 Z M 17.5 21 C 16.671574 21 16 20.328426 16 19.5 C 16 18.671574 16.671574 18 17.5 18 C 18.328426 18 19 18.671574 19 19.5 C 19 20.328426 18.328426 21 17.5 21 Z M 17.5 16.75 C 16.809643 16.75 16.25 16.190357 16.25 15.5 C 16.323368 14.307703 16.969067 13.224583 17.983 12.593002 C 18.814999 11.913002 19.25 11.512001 19.25 10.5 C 19.25 9.533501 18.466499 8.75 17.5 8.75 C 16.533501 8.75 15.75 9.533501 15.75 10.5 C 15.75 11.190357 15.190356 11.75 14.5 11.75 C 13.809644 11.75 13.25 11.190357 13.25 10.5 C 13.25 8.15279 15.15279 6.25 17.5 6.25 C 19.84721 6.25 21.75 8.15279 21.75 10.5 C 21.739853 12.123775 20.91975 13.635303 19.563999 14.528999 C 18.934 15.043999 18.75 15.234001 18.75 15.5 C 18.75 16.190357 18.190357 16.75 17.5 16.75 Z"/>
    </g>
</svg>
