<svg xmlns="http://www.w3.org/2000/svg" xmlns:xlink="http://www.w3.org/1999/xlink" fill="none" version="1.1" width="44" height="44" viewBox="0 0 44 44"><defs><clipPath id="master_svg0_15_0642"><rect x="9" y="9" width="26" height="26" rx="0"/></clipPath></defs><g><g clip-path="url(#master_svg0_15_0642)"><g><path d="M16.89421,12C16.89421,12,15.10831,12,15.10831,12C14.496222,12,14,12.516721,14,13.1541C14,13.1541,14,30.8459,14,30.8459C14,31.4833,14.496222,32,15.10831,32C15.10831,32,16.89421,32,16.89421,32C17.5063,32,18.00252,31.4833,18.00252,30.8459C18.00252,30.8459,18.00252,13.1541,18.00252,13.1541C18.00252,12.516721,17.5063,12,16.89421,12ZM28.8917,12C28.8917,12,27.105800000000002,12,27.105800000000002,12C26.4937,12,25.997500000000002,12.516721,25.997500000000002,13.1541C25.997500000000002,13.1541,25.997500000000002,30.8459,25.997500000000002,30.8459C25.997500000000002,31.4833,26.4937,32,27.105800000000002,32C27.105800000000002,32,28.8917,32,28.8917,32C29.5038,32,30,31.4833,30,30.8459C30,30.8459,30,13.1541,30,13.1541C30,12.516721,29.5038,12,28.8917,12Z" fill="#FE7F00" fill-opacity="1"/></g></g><g><rect x="0.5" y="0.5" width="43" height="43" rx="7.5" fill-opacity="0" stroke-opacity="1" stroke="#262E30" fill="none" stroke-width="1"/></g></g></svg>