<svg xmlns="http://www.w3.org/2000/svg" xmlns:xlink="http://www.w3.org/1999/xlink" fill="none" version="1.1" width="44" height="44" viewBox="0 0 44 44"><defs><clipPath id="master_svg0_15_0657"><rect x="9" y="9" width="26" height="26" rx="0"/></clipPath></defs><g><g><g><rect x="0.5" y="0.5" width="43" height="43" rx="7.5" fill-opacity="0" stroke-opacity="1" stroke="#262E30" fill="none" stroke-width="1"/></g></g><g clip-path="url(#master_svg0_15_0657)"><g><g><path d="M32.6753,31.078134375L11.998537,31.078134375C11.446316,31.078134375,11,30.681234375000003,11,30.190134375L11,15.690721375C11,15.199640375,11.446316,14.802734375,11.998537,14.802734375L32.6753,14.802734375C33.2275,14.802734375,33.6738,15.199640375,33.6738,15.690721375L33.6738,30.190134375C33.6738,30.678934375,33.225,31.078134375,32.6753,31.078134375Z" fill="#8FD1FF" fill-opacity="1" style="mix-blend-mode:passthrough"/></g><g><path d="M22.349600000000002,19.09375L11,19.09375L11,13.999629C11,13.446799,11.446824,13,11.999654,13L19.76715,13C20.20895,13,20.59768,13.287777,20.7239,13.711851L22.349600000000002,19.09375Z" fill="#0072C3" fill-opacity="1" style="mix-blend-mode:passthrough"/></g><g><path d="M32.6753,31.078128125L11.998537,31.078128125C11.446316,31.078128125,11,30.631728125000002,11,30.079428125L11,17.172492125C11,16.620195125,11.446316,16.173828125,11.998537,16.173828125L32.6753,16.173828125C33.2275,16.173828125,33.6738,16.620195125,33.6738,17.172492125L33.6738,30.079428125C33.6738,30.629228124999997,33.225,31.078128125,32.6753,31.078128125Z" fill="#0C88E0" fill-opacity="1" style="mix-blend-mode:passthrough"/></g></g></g></g></svg>