<svg xmlns="http://www.w3.org/2000/svg" xmlns:xlink="http://www.w3.org/1999/xlink" fill="none" version="1.1" width="404" height="404" viewBox="0 0 404 404"><defs><clipPath id="master_svg0_7_881"><rect x="0" y="0" width="404" height="404" rx="0"/></clipPath></defs><g clip-path="url(#master_svg0_7_881)"><g><path d="M344.1846552734375,198.964380078125C265.1856552734375,153.354680078125,137.5226552734375,153.354680078125,59.0351552734375,198.964380078125C-19.4528447265625,244.57418007812498,-19.0192447265625,318.51808007812497,59.9631552734375,364.127080078125C138.9456552734375,409.737080078125,266.6246552734375,409.74608007812503,345.1126552734375,364.127080078125C423.6016552734375,318.509080078125,423.2286552734375,244.565480078125,344.1846552734375,198.964380078125Z" fill="#F5F5F5" fill-opacity="1" style="mix-blend-mode:passthrough"/></g><g><path d="M184.113046875,370.120419921875L200.721046875,385.956919921875L247.085046875,369.695519921875L230.477046875,353.859119921875L184.113046875,370.120419921875ZM101.141146875,314.155419921875L107.905946875,318.058219921875L130.411546875,304.979719921875L91.904746875,282.742919921875L69.390396875,295.830019921875L79.268646875,301.528019921875L63.623046875,303.817619921875L77.091746875,334.302119921875L108.03594687500001,329.775019921875L101.141146875,314.155419921875Z" fill="#E0E0E0" fill-opacity="1" style="mix-blend-mode:passthrough"/></g><g><path d="M304.25550683593747,285.3274203125L348.2785068359375,267.0106203125L329.5625068359375,251.97222031249999L294.47350683593754,266.6117203125L293.77950683593747,258.5201203125L295.0545068359375,258.8149203125L307.0135068359375,241.6343203125L262.53150683593753,231.2270203125L294.7595068359375,212.6154203125L272.2105068359375,199.5283203125L233.7035068359375,221.7651203125L254.0235068359375,233.5687203125L244.6915068359375,246.9854203125L261.97650683593747,251.0008203125L239.5405068359375,251.5993203125L249.4705068359375,231.8168203125L218.8035068359375,226.6132203125L232.3155068359375,244.6784203125L218.8035068359375,226.6132203125L209.0815068359375,245.9707203125L156.4122068359375,247.3757203125L157.73040683593752,262.8218203125L143.9668068359375,259.5695203125L131.9638068359375,276.6981203125L170.1758068359375,285.7437203125L127.6795068359375,287.9986203125L130.6889068359375,306.4193203125L180.7565068359375,303.8173203125L181.26820683593752,305.0843203125L152.64820683593751,308.0583203125L156.0306068359375,318.7783203125L128.8763068359375,327.68532031250004L130.72360683593752,329.5673203125L123.15230683593751,326.9733203125L96.1195068359375,354.2063203125L123.8722068359375,363.4603203125L144.0796068359375,343.0793203125L155.7964068359375,355.01232031250004L181.59770683593752,346.5483203125L179.4469068359375,348.7163203125L207.19950683593748,357.9703203125L226.1235068359375,338.89032031249997L228.7255068359375,340.39032031249997L264.2835068359375,319.8453203125L290.85650683593747,310.4613203125L271.9935068359375,292.6298203125L272.4445068359375,292.8032203125L290.2755068359375,277.48722031249997L269.4605068359375,269.3175203125L289.1135068359375,268.7885203125L285.5925068359375,270.2542203125L304.25550683593747,285.3274203125ZM128.91100683593748,346.4003203125L124.4793068359375,331.58732031249997L128.91100683593748,346.4003203125ZM234.3365068359375,261.9978203125L238.9595068359375,252.7961203125L239.9475068359375,264.4175203125L235.7505068359375,268.0253203125L224.9875068359375,260.4107203125L234.3365068359375,261.9978203125ZM212.2035068359375,264.4088203125L211.6745068359375,258.1385203125L221.9605068359375,259.8730203125L192.7161068359375,273.7493203125L194.2946068359375,271.4944203125L169.2651068359375,265.57102031249997L212.2035068359375,264.4088203125ZM207.8675068359375,326.2883203125L207.8065068359375,326.06332031249997L207.8675068359375,326.2883203125ZM212.61150683593752,323.5483203125L206.4105068359375,321.4843203125L193.48800683593748,334.49332031250003L188.0762068359375,317.3553203125L233.9115068359375,311.2153203125L212.61150683593752,323.5483203125ZM175.4054068359375,337.6153203125L192.1784068359375,335.8803203125L182.8900068359375,345.2473203125L175.4054068359375,337.6153203125ZM212.2385068359375,340.8763203125L208.5955068359375,328.7343203125L212.2385068359375,340.8763203125ZM238.4555068359375,308.6313203125L231.9345068359375,292.5084203125L184.00010683593752,298.9175203125L182.3176068359375,288.6057203125L186.46310683593748,282.6909203125L201.64050683593752,293.4971203125L234.4235068359375,277.9729203125L255.2375068359375,286.1426203125L235.1425068359375,293.2369203125L252.5405068359375,309.7153203125L244.5785068359375,305.09232031249996L238.4555068359375,308.6313203125ZM243.2515068359375,363.2343203125L274.57750683593747,366.9033203125L285.17550683593754,336.0883203125L253.8505068359375,332.41132031250004L243.2515068359375,363.2343203125Z" fill="#E0E0E0" fill-opacity="1" style="mix-blend-mode:passthrough"/></g><g><path d="M282.8597890625,299.63763476562497C298.4707890625,290.626334765625,323.6737890625,290.626334765625,339.1717890625,299.63763476562497C354.6697890625,308.648634765625,354.5837890625,323.244634765625,338.9897890625,332.246634765625C323.3967890625,341.248634765625,298.17578906250003,341.25763476562497,282.6777890625,332.246634765625C267.1797890625,323.23563476562504,267.26678906250004,308.63963476562503,282.8597890625,299.63763476562497ZM214.5537890625,222.380834765625L122.2849890625,276.047534765625C120.0695890625,277.330734765625,117.3368890625,277.330734765625,115.1213890625,276.047534765625L68.0285810625,248.849934765625C67.4749660625,248.531034765625,67.1337890625,247.940734765625,67.1337890625,247.30183476562502C67.13378135681,246.662934765625,67.4749580625,246.072634765625,68.0285810625,245.75373476562498L160.2974890625,192.113059765625C162.5129890625,190.829815765625,165.2456890625,190.829815765625,167.4607890625,192.113059765625L214.5537890625,219.310634765625C215.7177890625,220.003434765625,215.7177890625,221.688034765625,214.5537890625,222.380834765625Z" fill="#E0E0E0" fill-opacity="1" style="mix-blend-mode:passthrough"/></g><g><path d="M118.7467974609375,255.1637875L118.6859974609375,274.7986875L211.7878974609375,220.6896875L211.8478974609375,201.0546875L118.7467974609375,255.1637875ZM102.7195974609375,227.4023875L70.2489704609375,208.6693575L70.1448974609375,246.7771875L118.65999746093749,274.7987875L118.7206974609375,255.1637875L102.7195974609375,227.4023875Z" fill="#0070C6" fill-opacity="1" style="mix-blend-mode:passthrough"/></g><g style="opacity:0.30000001192092896;"><path d="M102.7195974609375,227.402189453125L70.2489704609375,208.669189453125L70.1448974609375,246.777089453125L118.65999746093749,274.79858945312503L118.7206974609375,255.16358945312498L102.7195974609375,227.402189453125Z" fill="#000000" fill-opacity="1" style="mix-blend-mode:passthrough"/></g><g><path d="M118.7468044921875,255.16370195312498L211.84860449218752,201.054701953125L195.82980449218752,173.302001953125L102.7196044921875,227.402401953125L118.7468044921875,255.16370195312498Z" fill="#0070C6" fill-opacity="1" style="mix-blend-mode:passthrough"/></g><g style="opacity:0.10000000149011612;"><path d="M118.7468044921875,255.16370195312498L211.84860449218752,201.054701953125L195.82980449218752,173.302001953125L102.7196044921875,227.402401953125L118.7468044921875,255.16370195312498Z" fill="#000000" fill-opacity="1" style="mix-blend-mode:passthrough"/></g><g style="opacity:0.5;"><path d="M195.439356640625,186.128973765625L200.894456640625,197.611609765625C201.075456640625,197.929209765625,200.98965664062501,198.332009765625,200.694956640625,198.548309765625L185.326946640625,207.420509765625C185.006086640625,207.568109765625,184.627856640625,207.407109765625,184.511716640625,207.073509765625L179.082601440625,195.634249765625C179.082601440625,195.547529765625,179.030572640625,195.486809765625,179.013219450625,195.434779765625C179.006330570625,195.356889765625,179.006330570625,195.278519765625,179.013219450625,195.200619765625C179.023051940625,195.133209765625,179.037538640625,195.066549765625,179.056587040625,195.001149765625C179.082601440625,194.943049765625,179.114687640625,194.888399765625,179.151983640625,194.836369765625C179.191729640625,194.781039765625,179.241800640625,194.733919765625,179.299423640625,194.697609765625L194.676156640625,185.825431065625C194.72165664062499,185.799123865625,194.771656640625,185.781477765625,194.823556640625,185.773386865625C194.885956640625,185.755555875625,194.952056640625,185.755555875625,195.014356640625,185.773386865625C195.070456640625,185.781231265625,195.123856640625,185.802021165625,195.170456640625,185.834092265625C195.235756640625,185.866532765625,195.294556640625,185.910624765625,195.343956640625,185.964179765625C195.380256640625,186.016316765625,195.412256640625,186.071427765625,195.439356640625,186.128973765625ZM199.584856640625,197.559609765625L195.135756640625,188.115019765625L191.831456640625,198.808509765625C191.791056640625,198.945509765625,191.701456640625,199.062809765625,191.579956640625,199.138009765625C191.467456640625,199.204909765625,191.331856640625,199.220709765625,191.207056640625,199.181409765625L180.713066640625,196.362709765625L185.222876640625,205.902709765625L199.584856640625,197.611609765625M193.860856640625,187.967579765625L181.380866640625,195.174599765625L190.842756640625,197.776409765625L193.860856640625,188.002269765625" fill="#FFFFFF" fill-opacity="1" style="mix-blend-mode:passthrough"/></g><g><path d="M195.8210244140625,173.302191796875L163.3765244140625,154.569091796875L70.2750244140625,208.669491796875L102.71962441406251,227.40249179687498L195.8210244140625,173.302191796875Z" fill="#0070C6" fill-opacity="1" style="mix-blend-mode:passthrough"/></g><g style="opacity:0.20000000298023224;"><path d="M195.8210244140625,173.302191796875L163.3765244140625,154.569091796875L70.2750244140625,208.669491796875L102.71962441406251,227.40249179687498L195.8210244140625,173.302191796875Z" fill="#000000" fill-opacity="1" style="mix-blend-mode:passthrough"/></g><g style="opacity:0.20000000298023224;"><path d="M163.3765244140625,154.569091796875L70.2750244140625,208.669491796875L90.1268244140625,220.134791796875L183.2280244140625,166.025691796875L163.3765244140625,154.569091796875Z" fill="#000000" fill-opacity="1" style="mix-blend-mode:passthrough"/></g><g><path d="M141.29570664062499,211.184326171875L110.039306640625,229.353626171875L120.698106640625,247.826526171875L151.963206640625,229.657226171875L141.29570664062499,211.184326171875Z" fill="#455A64" fill-opacity="1" style="mix-blend-mode:passthrough"/></g><g style="opacity:0.5;"><path d="M134.270878046875,229.61400328125L132.987308046875,230.35118328125L130.385498046875,225.72863328125L132.310838046875,224.60986328125L134.270878046875,229.61400328125ZM133.923978046875,230.58534328125C134.485188046875,230.26078328125,135.203158046875,230.52794328125,135.415698046875,231.14040328125C135.760598046875,231.73921328125,135.573368046875,232.50338328125,134.990728046875,232.87493328125C134.416418046875,233.19102328125,133.695568046875,232.91917328125,133.472998046875,232.30254328125C133.129628046875,231.70296328125,133.330318046875,230.93882328125,133.923978046875,230.58534328125Z" fill="#FFFFFF" fill-opacity="1" style="mix-blend-mode:passthrough"/></g><g style="opacity:0.5;"><path d="M140.0901693359375,228.2349646875C140.8268693359375,228.8375846875,141.2561693359375,229.7375646875,141.2609693359375,230.6893346875C141.3191693359375,231.5687546875,140.8979693359375,232.4111546875,140.1595693359375,232.89225468749999L132.0765793359375,237.5581546875C131.3407493359375,237.9626546875,130.4296793359375,237.8583546875,129.8043293359375,237.2979546875C129.0708573359375,236.6936546875,128.6448323359375,235.7939546875,128.6421893359375,234.8435546875L128.4774111159375,223.6557846875C128.4135232359375,222.7752146875,128.8360573359375,221.9301426875,129.5788493359375,221.4529136875C130.3102093359375,221.0475026875,131.2178793359375,221.1483698875,131.8424193359375,221.7044276875L140.0901693359375,228.2349646875ZM140.3503693359375,230.5852646875C140.3477693359375,230.0136546875,140.0901693359375,229.4730146875,139.64786933593751,229.1109046875L131.4087593359375,222.5890246875C131.0325593359375,222.2565546875,130.4888393359375,222.1942166875,130.0471493359375,222.4329246875C129.5973993359375,222.7187146875,129.3409103359375,223.2283646875,129.3793463359375,223.7598446875L129.5441293359375,234.9476546875C129.5503193359375,235.5184546875,129.8072293359375,236.0576546875,130.2466193359375,236.4219546875C130.6228293359375,236.75445468750002,131.1665593359375,236.8168546875,131.6082293359375,236.5780546875L139.6911693359375,231.9121546875C140.1334693359375,231.6207546875,140.3849693359375,231.1142946875,140.3503693359375,230.5852646875Z" fill="#FFFFFF" fill-opacity="1" style="mix-blend-mode:passthrough"/></g><g><path d="M154.3828763671875,228.243496875L143.7241263671875,209.779296875L141.2957763671875,211.184276875L151.9631763671875,229.657096875L154.3828763671875,228.243496875Z" fill="#0070C6" fill-opacity="1" style="mix-blend-mode:passthrough"/></g><g style="opacity:0.30000001192092896;"><path d="M154.3828763671875,228.243496875L143.7241263671875,209.779296875L141.2957763671875,211.184276875L151.9631763671875,229.657096875L154.3828763671875,228.243496875Z" fill="#000000" fill-opacity="1" style="mix-blend-mode:passthrough"/></g><g style="opacity:0.10000000149011612;"><path d="M120.698006640625,247.826717578125L151.963206640625,229.657407578125L150.974506640625,228.009590578125L122.354506640625,244.643817578125L112.528376640625,227.905517578125L110.039306640625,229.353867578125L120.698006640625,247.826717578125Z" fill="#000000" fill-opacity="1" style="mix-blend-mode:passthrough"/></g><g><path d="M207.581387578125,213.473876953125L204.311767578125,215.355856953125L207.598717578125,217.255176953125L207.581387578125,213.473876953125Z" fill="#455A64" fill-opacity="1" style="mix-blend-mode:passthrough"/></g><g><path d="M204.31175078125,215.35595703125L123.35205078125,262.07585703125L123.36072738125,265.85715703125L207.59875078125,217.25526703125L204.31175078125,215.35595703125Z" fill="#37474F" fill-opacity="1" style="mix-blend-mode:passthrough"/></g><g><path d="M88.7739304,72.9588078125C88.7739304,73.0542078125,88.7739304,73.1496078125,88.834636,73.2363078125C88.834636,73.3404078125,88.895341,73.45310781250001,88.930032,73.5572078125C88.962119,73.6491078125,88.999414,73.7393078125,89.042774,73.8261078125L89.207553,74.1730078125L89.354986,74.41580781249999C89.435641,74.5433078125,89.522368,74.6734078125,89.615168,74.8061078125L89.77128,75.0055078125L89.91871,75.18770781250001L89.98809,75.2657078125C90.09217,75.3785078125,90.20491,75.4825078125,90.31766,75.5953078125L90.47377,75.7427078125C90.57784,75.8381078125,90.69926,75.9335078125,90.82068,76.0289078125L91.02015,76.1850078125L91.14156,76.28910781249999L91.54918,76.5579078125C91.68794,76.6533078125,91.82671,76.7487078125,91.98282,76.8355078125L102.46815,82.90640781249999L140.87955,60.7302678125L130.39425,54.6593678125C125.96244999999999,52.0575558125,118.76415,52.0575558125,114.29765,54.6593678125L92.06087,67.5904078125C89.675873,68.9693078125,88.591783,70.8079078125,88.7305474,72.6119078125C88.736003,72.7285078125,88.7504974,72.8444078125,88.7739304,72.9588078125Z" fill="#455A64" fill-opacity="1" style="mix-blend-mode:passthrough"/></g><g style="opacity:0.5;"><path d="M88.7739304,72.9588078125C88.7739304,73.0542078125,88.7739304,73.1496078125,88.834636,73.2363078125C88.834636,73.3404078125,88.895341,73.45310781250001,88.930032,73.5572078125C88.962119,73.6491078125,88.999414,73.7393078125,89.042774,73.8261078125L89.207553,74.1730078125L89.354986,74.41580781249999C89.435641,74.5433078125,89.522368,74.6734078125,89.615168,74.8061078125L89.77128,75.0055078125L89.91871,75.18770781250001L89.98809,75.2657078125C90.09217,75.3785078125,90.20491,75.4825078125,90.31766,75.5953078125L90.47377,75.7427078125C90.57784,75.8381078125,90.69926,75.9335078125,90.82068,76.0289078125L91.02015,76.1850078125L91.14156,76.28910781249999L91.54918,76.5579078125C91.68794,76.6533078125,91.82671,76.7487078125,91.98282,76.8355078125L102.46815,82.90640781249999L140.87955,60.7302678125L130.39425,54.6593678125C125.96244999999999,52.0575558125,118.76415,52.0575558125,114.29765,54.6593678125L92.06087,67.5904078125C89.675873,68.9693078125,88.591783,70.8079078125,88.7305474,72.6119078125C88.736003,72.7285078125,88.7504974,72.8444078125,88.7739304,72.9588078125Z" fill="#FFFFFF" fill-opacity="1" style="mix-blend-mode:passthrough"/></g><g><path d="M92.008675,76.9135665625C91.861235,76.8268465625,91.722475,76.7314465625,91.583705,76.6360465625L91.176095,76.3671865625L91.054675,76.2631165625L90.86387500000001,76.1156865625C90.742455,76.0202865625,90.621035,75.9248865625,90.516965,75.8294865625L90.360855,75.6820565625C90.247485,75.5816865625,90.140325,75.4745365625,90.039965,75.3611665625L89.970585,75.2831165625L89.823153,75.1009965625L89.67572,74.9101865625C89.582373,74.7846465625,89.49553,74.6543765625,89.415537,74.5199165625C89.363501,74.4418665625,89.311464,74.3638165625,89.268104,74.2857565625L89.103326,73.9388465625C89.103326,73.8521265625,89.025275,73.7740765625,88.990584,73.6873465625C88.990584,73.5832765625,88.929879,73.4705265625,88.8951876,73.3664565625C88.8951876,73.2797295625,88.8518277,73.1930015625,88.83448219,73.1062745625C88.82600594,72.9936865625,88.82600594,72.8806285625,88.83448219,72.7680415625L88.83448219,72.4384765625L88.938555,108.3087765625L88.938555,108.4128765625C88.934302,108.4879765625,88.934302,108.5632765625,88.938555,108.6383765625C88.93004,108.7595765625,88.93004,108.88137656250001,88.938555,109.0025765625L88.938555,109.0632765625C88.938555,109.1413765625,88.990592,109.2107765625,89.007937,109.2887765625C89.025283,109.36687656250001,89.068643,109.52297656249999,89.103334,109.63567656250001L89.103334,109.7050765625C89.131575,109.7732765625,89.163415,109.83977656249999,89.19873,109.9045765625C89.250767,110.0259765625,89.302803,110.1473765625,89.363509,110.26017656249999L89.363509,110.3468765625C89.363509,110.4075765625,89.441559,110.45957656249999,89.47625,110.5116765625C89.510941,110.5636765625,89.649705,110.7804765625,89.745102,110.9105765625C89.774145,110.9490765625,89.800236,110.9896765625,89.823153,111.0319765625L90.048645,111.2921765625L90.126695,111.3788765625C90.254185,111.52377656249999,90.389475,111.65907656249999,90.534315,111.7865765625L90.603695,111.8472765625C90.707765,111.9426765625,90.837855,112.03807656250001,90.950605,112.1334765625C91.063345,112.2288765625,91.158745,112.30687656250001,91.271495,112.3849765625L91.67910499999999,112.66247656249999L91.973975,112.8532765625L92.112745,112.9399765625L102.598025,119.0108765625L102.494025,83.1492765625L92.008675,76.9135665625Z" fill="#37474F" fill-opacity="1" style="mix-blend-mode:passthrough"/></g><g style="opacity:0.30000001192092896;"><path d="M92.008675,76.9135665625C91.861235,76.8268465625,91.722475,76.7314465625,91.583705,76.6360465625L91.176095,76.3671865625L91.054675,76.2631165625L90.86387500000001,76.1156865625C90.742455,76.0202865625,90.621035,75.9248865625,90.516965,75.8294865625L90.360855,75.6820565625C90.247485,75.5816865625,90.140325,75.4745365625,90.039965,75.3611665625L89.970585,75.2831165625L89.823153,75.1009965625L89.67572,74.9101865625C89.582373,74.7846465625,89.49553,74.6543765625,89.415537,74.5199165625C89.363501,74.4418665625,89.311464,74.3638165625,89.268104,74.2857565625L89.103326,73.9388465625C89.103326,73.8521265625,89.025275,73.7740765625,88.990584,73.6873465625C88.990584,73.5832765625,88.929879,73.4705265625,88.8951876,73.3664565625C88.8951876,73.2797295625,88.8518277,73.1930015625,88.83448219,73.1062745625C88.82600594,72.9936865625,88.82600594,72.8806285625,88.83448219,72.7680415625L88.83448219,72.4384765625L88.938555,108.3087765625L88.938555,108.4128765625C88.934302,108.4879765625,88.934302,108.5632765625,88.938555,108.6383765625C88.93004,108.7595765625,88.93004,108.88137656250001,88.938555,109.0025765625L88.938555,109.0632765625C88.938555,109.1413765625,88.990592,109.2107765625,89.007937,109.2887765625C89.025283,109.36687656250001,89.068643,109.52297656249999,89.103334,109.63567656250001L89.103334,109.7050765625C89.131575,109.7732765625,89.163415,109.83977656249999,89.19873,109.9045765625C89.250767,110.0259765625,89.302803,110.1473765625,89.363509,110.26017656249999L89.363509,110.3468765625C89.363509,110.4075765625,89.441559,110.45957656249999,89.47625,110.5116765625C89.510941,110.5636765625,89.649705,110.7804765625,89.745102,110.9105765625C89.774145,110.9490765625,89.800236,110.9896765625,89.823153,111.0319765625L90.048645,111.2921765625L90.126695,111.3788765625C90.254185,111.52377656249999,90.389475,111.65907656249999,90.534315,111.7865765625L90.603695,111.8472765625C90.707765,111.9426765625,90.837855,112.03807656250001,90.950605,112.1334765625C91.063345,112.2288765625,91.158745,112.30687656250001,91.271495,112.3849765625L91.67910499999999,112.66247656249999L91.973975,112.8532765625L92.112745,112.9399765625L102.598025,119.0108765625L102.494025,83.1492765625L92.008675,76.9135665625Z" fill="#FFFFFF" fill-opacity="1" style="mix-blend-mode:passthrough"/></g><g><path d="M140.90529648437501,60.834228515625L102.493896484375,83.010328515625L102.597969484375,118.872028515625L141.009396484375,96.704528515625L140.90529648437501,60.834228515625Z" fill="#263238" fill-opacity="1" style="mix-blend-mode:passthrough"/></g><g><path d="M61.0297078515625,222.71928515625L60.7955478515625,117.69268515625C60.9700278515625,114.39398515625,62.7104378515625,111.37728515625,65.4788078515625,109.57498515625L196.0030478515625,34.39998515625C196.9670478515625,33.70242515625,198.2290478515625,33.57027515625,199.3160478515625,34.05307515625L194.3990478515625,31.20842615625C193.5310478515625,30.66204515625,192.3260478515625,30.70540915625,190.9900478515625,31.48595315625L60.4573078515625,106.66968515625C57.6913278515625,108.47008515625,55.9512478515625,111.48308515625,55.7740478515625,114.77858515625L56.0082078515625,219.77928515625C55.8914018515625,220.91028515625,56.3548838515625,222.02328515625,57.2397278515625,222.73628515625L57.4999178515625,222.88428515625L62.3479578515625,225.71128515625C61.4127078515625,225.01528515625,60.9120778515625,223.87928515625,61.0297078515625,222.71928515625Z" fill="#0070C6" fill-opacity="1" style="mix-blend-mode:passthrough"/></g><g style="opacity:0.30000001192092896;"><path d="M194.424732421875,31.20842615625C193.557732421875,30.66204515625,192.351732421875,30.70540915625,191.016732421875,31.48595315625L60.457562421875,106.66968515625C58.915982421875,107.64448515625,57.675837421875,109.02868515625,56.875732421875,110.66778515625L61.897232421875,113.57318515625C62.697342421875,111.93408515625,63.937482421875,110.54978515625,65.479052421875,109.57498515625L196.003732421875,34.39998515625C196.966732421875,33.70241515625,198.228732421875,33.57026515625,199.316732421875,34.05307515625L194.424732421875,31.20842615625Z" fill="#FFFFFF" fill-opacity="1" style="mix-blend-mode:passthrough"/></g><g style="opacity:0.20000000298023224;"><path d="M55.7740478515625,114.778465546875L56.0082078515625,219.778935546875C55.8914018515625,220.909935546875,56.3548838515625,222.022935546875,57.2397278515625,222.735935546875L57.4999178515625,222.883935546875L62.3479578515625,225.71093554687502C61.4000878515625,225.019935546875,60.8887678515625,223.877935546875,61.0036878515625,222.709935546875L60.7695178515625,117.683835546875C60.8044578515625,116.242695546875,61.1820078515625,114.830575546875,61.8709578515625,113.564295546875L56.8494578515625,110.658935546875C56.1732568515625,111.928925546875,55.8048860515625,113.340015546875,55.7740478515625,114.778465546875Z" fill="#000000" fill-opacity="1" style="mix-blend-mode:passthrough"/></g><g><path d="M200.746654296875,37.07974296875C200.864654296875,35.91211296875,200.348654296875,34.77099196875,199.394654296875,34.08765496875C198.306654296875,33.60484596875,197.044654296875,33.73699646875,196.081654296875,34.43456396875L65.478914296875,109.57489296875C62.710544296875,111.37719296875,60.970142296875,114.39389296875,60.795654296875,117.69259296875L61.029818296875,222.71929296875C60.914896296875,223.88729296875,61.426222296875,225.02829296875,62.374084296875,225.72029296875L62.452144296875,225.72029296875C63.530644296874996,226.16629296875,64.763284296875,226.02529296875,65.71307429687499,225.34729296875L196.297654296875,150.22429296875C199.065654296875,148.42529296875,200.806654296875,145.41129296875,200.981654296875,142.11529296875L200.746654296875,37.07974296875ZM193.973654296875,146.20829296875002L65.661034296875,220.10029296875L65.435544296875,117.68389296875C65.605784296875,116.04899296875,66.463534296875,114.56369296875,67.794514296875,113.59899296875L196.150654296875,39.70757296875L196.375654296875,142.12329296874998C196.193654296875,143.76529296875,195.319654296875,145.25129296875,193.973654296875,146.20829296875002Z" fill="#0070C6" fill-opacity="1" style="mix-blend-mode:passthrough"/></g><g><path d="M196.1164658203125,39.707763671875L192.7944658203125,41.615763671875L193.01146582031248,140.484763671875C192.8364658203125,142.117763671875,191.9794658203125,143.601763671875,190.6524658203125,144.569763671875L65.6524658203125,216.552763671875L65.6524658203125,220.091763671875L194.0084658203125,146.19976367187502C195.3414658203125,145.23576367187502,196.2014658203125,143.750763671875,196.3764658203125,142.11476367187498L196.1164658203125,39.707763671875Z" fill="#0070C6" fill-opacity="1" style="mix-blend-mode:passthrough"/></g><g style="opacity:0.30000001192092896;"><path d="M196.1164658203125,39.707763671875L192.7944658203125,41.615763671875L193.01146582031248,140.484763671875C192.8364658203125,142.117763671875,191.9794658203125,143.601763671875,190.6524658203125,144.569763671875L65.6524658203125,216.552763671875L65.6524658203125,220.091763671875L194.0084658203125,146.19976367187502C195.3414658203125,145.23576367187502,196.2014658203125,143.750763671875,196.3764658203125,142.11476367187498L196.1164658203125,39.707763671875Z" fill="#000000" fill-opacity="1" style="mix-blend-mode:passthrough"/></g><g><path d="M192.79479101562498,41.6328125L67.794761015625,113.6163125C66.463781015625,114.5809125,65.606025015625,116.0662125,65.435791015625,117.7011125L65.652606015625,216.5698125L190.65279101562498,144.5868125C191.97979101562498,143.6188125,192.836791015625,142.1348125,193.011791015625,140.5017125L192.79479101562498,41.6328125Z" fill="#455A64" fill-opacity="1" style="mix-blend-mode:passthrough"/></g><g style="opacity:0.5;"><path d="M154.668883984375,133.4334859375L154.677583984375,137.15408593749999L116.604413984375,159.1306859375L116.595733984375,155.4100859375L154.668883984375,133.4334859375ZM120.255583984375,122.22838593750001L122.553883984375,123.5378859375L117.228833984375,132.7569859375L122.579883984375,135.8097859375L120.307683984375,139.7471859375L114.947903984375,136.7030859375L109.631533984375,145.9134859375L107.333267284375,144.6125859375L112.658313984375,135.3934859375L107.298583984375,132.34078593750002L109.579503984375,128.39468593750001L114.939233984375,131.4387859375L120.255583984375,122.22838593750001ZM161.502983984375,98.4130859375L163.792583984375,99.7226659375L158.47618398437498,108.9417859375L163.82728398437501,111.9945859375L161.54638398437498,115.9405859375L156.195283984375,112.8877859375L150.878883984375,122.0982859375L148.580683984375,120.7973859375L153.896983984375,111.5868859375L148.545983984375,108.5341859375L150.826883984375,104.5793859375L156.177983984375,107.6321759375L161.502983984375,98.4130859375Z" fill="#FFFFFF" fill-opacity="1" style="mix-blend-mode:passthrough"/></g><g><path d="M111.5830548828125,52.39556328125L107.8711548828125,45.29266328125L107.8711548828125,45.18856328125L109.0853548828125,37.16636328125C109.3020548828125,35.774563281249996,108.6357548828125,34.39376328125,107.4115548828125,33.69725328125L90.6818648828125,24.12258428125C89.9104248828125,23.69849528125,88.9414768828125,23.96962608125,88.5021678828125,24.73250228125C88.0628668828125,25.49538328125,88.3147273828125,26.469523281249998,89.0687438828125,26.92387328125L105.80705488281251,36.53326328125L105.8851548828125,36.70666328125L104.6796548828125,44.73766328125C104.5715548828125,45.45066328125,104.6930548828125,46.17956328125,105.0265548828125,46.819063281249996L108.7384548828125,53.92196328125L108.7384548828125,54.060763281250004L103.4134548828125,66.80966328125001C103.2407548828125,67.22466328125,103.1522548828125,67.66976328125,103.1532548828125,68.11926328125L103.1532548828125,70.55626328125C103.1416548828125,70.87066328125,103.32415488281251,71.15986328125,103.6128548828125,71.28476328125001C104.3355548828125,71.64956328125001,105.1884548828125,71.64956328125001,105.9111548828125,71.28476328125001C106.1799548828125,71.16576328125001,106.3627548828125,70.90986328125,106.3881548828125,70.61696328125001L106.3881548828125,68.01516328125L111.7045548828125,55.266263281250005C112.0902548828125,54.33846328125,112.0458548828125,53.28756328125,111.5830548828125,52.39556328125Z" fill="#0070C6" fill-opacity="1" style="mix-blend-mode:passthrough"/></g><g><path d="M116.2142987109375,44.234770312500004L116.2142987109375,44.1220703125L118.2783987109375,38.1291703125C118.4757487109375,37.554570312500005,118.5146987109375,36.9374703125,118.3911487109375,36.3425703125L115.4077287109375,21.5990103125C115.2241587109375,20.7268473125,114.3718087109375,20.1657403125,113.4981287109375,20.3419072125C112.6244317109375,20.5180733125,112.0561137109375,21.3656303125,112.2248527109375,22.2407903125L115.2169387109375,37.0884703125L113.1528287109375,43.0899703125C112.8957387109375,43.8285703125,112.8957387109375,44.6323703125,113.1528287109375,45.3708703125L115.2429587109375,51.0428703125L115.2429587109375,51.1469703125L111.9993617109375,61.6582703125C111.9030945109375,61.9849703125,111.8534544409375,62.3236703125,111.8519287109375,62.6642703125L111.8519287109375,64.9538703125C111.8786828109375,65.24167031249999,112.0573387109375,65.49307031250001,112.3202577109375,65.61297031250001C113.0400887109375,65.9859703125,113.8986887109375,65.9859703125,114.6185287109375,65.61297031250001C114.9106387109375,65.4908703125,115.0969687109375,65.2009703125,115.0868487109375,64.8844703125L115.0868487109375,62.5948703125L118.3304487109375,52.0835703125C118.5494387109375,51.3709703125,118.5281087109375,50.6060703125,118.2697387109375,49.9067703125L116.2142987109375,44.234770312500004Z" fill="#455A64" fill-opacity="1" style="mix-blend-mode:passthrough"/></g><g><path d="M145.3198744140625,29.9160329628L139.7086744140625,29.9160329628C138.5725744140625,29.912311115,137.5105744140625,30.479170625,136.8813744140625,31.425085625L133.7418744140625,36.117015625L133.6377744140625,36.186405625L129.5269144140625,37.157745625C128.4809844140625,37.405325625,127.6131244140625,38.131755625,127.1852844140625,39.117775625C126.8672644140625,39.864665625,126.8212244140625,40.699415625,127.0552044140625,41.476715625L127.5148544140625,43.211315625C127.5317244140625,43.253015625,127.5317244140625,43.299615625,127.5148544140625,43.341415624999996C127.4882344140625,43.376715625,127.4521544140625,43.403815625,127.4107844140625,43.419415625L126.1445644140625,43.731615625C124.9785944140625,44.021415625,124.0521244140625,44.905015625000004,123.7075344140625,46.055915625L119.7961434140625,59.125715625C119.7095157140625,59.447815625000004,119.6715113040625,59.781115625,119.6834011840625,60.114415625L119.6834011840625,62.126515625C119.7034745140625,62.418715625,119.8837794140625,62.675815625,120.1517294140625,62.794315625C120.8743844140625,63.159115625,121.7273444140625,63.159115625,122.4499944140625,62.794315625C122.7550244140625,62.669415625,122.9418944140625,62.359115625,122.9096444140625,62.031115625L122.9096444140625,60.062415625L126.8210444140625,46.992615625L126.9337844140625,46.879815625L128.1999944140625,46.567615625C129.2292944140625,46.300715624999995,130.0756744140625,45.569715625,130.4895744140625,44.590215625C130.7896744140625,43.845015625,130.83237441406249,43.020915625,130.6109744140625,42.248615625L130.1426744140625,40.514115625C130.1248744140625,40.472515625,130.1248744140625,40.425515625,130.1426744140625,40.384015625C130.1592744140625,40.340015625,130.1998744140625,40.309615625,130.2467744140625,40.305915625L134.4269744140625,39.386635625C135.2650744140625,39.184405625,135.9978744140625,38.677355625000004,136.4824744140625,37.964305625L139.6132744140625,33.272375625L139.7520744140625,33.194315625L145.3632744140625,33.194315625C146.3030744140625,33.263185625,147.1035744140625,32.519225625,147.1035744140625,31.576855625C147.1035744140625,30.634480625,146.3030744140625,29.890531025,145.3632744140625,29.959396725L145.3198744140625,29.9160329628Z" fill="#0070C6" fill-opacity="1" style="mix-blend-mode:passthrough"/></g><g style="opacity:0.10000000149011612;"><path d="M111.5830548828125,52.39556328125L107.8711548828125,45.29266328125L107.8711548828125,45.18856328125L109.0853548828125,37.16636328125C109.3020548828125,35.774563281249996,108.6357548828125,34.39376328125,107.4115548828125,33.69725328125L90.6818648828125,24.12258428125C89.9104248828125,23.69849528125,88.9414768828125,23.96962608125,88.5021678828125,24.73250228125C88.0628668828125,25.49538328125,88.3147273828125,26.469523281249998,89.0687438828125,26.92387328125L105.80705488281251,36.53326328125L105.8851548828125,36.70666328125L104.6796548828125,44.73766328125C104.5715548828125,45.45066328125,104.6930548828125,46.17956328125,105.0265548828125,46.819063281249996L108.7384548828125,53.92196328125L108.7384548828125,54.060763281250004L103.4134548828125,66.80966328125001C103.2407548828125,67.22466328125,103.1522548828125,67.66976328125,103.1532548828125,68.11926328125L103.1532548828125,70.55626328125C103.1416548828125,70.87066328125,103.32415488281251,71.15986328125,103.6128548828125,71.28476328125001C104.3355548828125,71.64956328125001,105.1884548828125,71.64956328125001,105.9111548828125,71.28476328125001C106.1799548828125,71.16576328125001,106.3627548828125,70.90986328125,106.3881548828125,70.61696328125001L106.3881548828125,68.01516328125L111.7045548828125,55.266263281250005C112.0902548828125,54.33846328125,112.0458548828125,53.28756328125,111.5830548828125,52.39556328125Z" fill="#FFFFFF" fill-opacity="1" style="mix-blend-mode:passthrough"/></g><g style="opacity:0.10000000149011612;"><path d="M116.2142987109375,44.234770312500004L116.2142987109375,44.1220703125L118.2783987109375,38.1291703125C118.4757487109375,37.554570312500005,118.5146987109375,36.9374703125,118.3911487109375,36.3425703125L115.4077287109375,21.5990103125C115.2241587109375,20.7268473125,114.3718087109375,20.1657403125,113.4981287109375,20.3419072125C112.6244317109375,20.5180733125,112.0561137109375,21.3656303125,112.2248527109375,22.2407903125L115.2169387109375,37.0884703125L113.1528287109375,43.0899703125C112.8957387109375,43.8285703125,112.8957387109375,44.6323703125,113.1528287109375,45.3708703125L115.2429587109375,51.0428703125L115.2429587109375,51.1469703125L111.9993617109375,61.6582703125C111.9030945109375,61.9849703125,111.8534544409375,62.3236703125,111.8519287109375,62.6642703125L111.8519287109375,64.9538703125C111.8786828109375,65.24167031249999,112.0573397109375,65.49307031250001,112.3202577109375,65.61297031250001C113.0400887109375,65.9859703125,113.8986887109375,65.9859703125,114.6185287109375,65.61297031250001C114.9106387109375,65.4908703125,115.0969687109375,65.2009703125,115.0868487109375,64.8844703125L115.0868487109375,62.5948703125L118.3304487109375,52.0835703125C118.5494387109375,51.3709703125,118.5281087109375,50.6060703125,118.2697387109375,49.9067703125L116.2142987109375,44.234770312500004ZM145.31992871093752,29.916140312499998L139.7086287109375,29.916140312499998C138.5726287109375,29.9124203125,137.5105287109375,30.4792703125,136.8813287109375,31.4251703125L133.7418287109375,36.1171703125L133.6377287109375,36.1864703125L129.5269287109375,37.157870312499995C128.4809287109375,37.4054703125,127.6131287109375,38.1318703125,127.1852287109375,39.1178703125C126.8672287109375,39.8647703125,126.8212287109375,40.6995703125,127.0552287109375,41.4768703125L127.51482871093751,43.2113703125C127.5317287109375,43.2531703125,127.5317287109375,43.2997703125,127.51482871093751,43.3414703125C127.4882287109375,43.3767703125,127.4521287109375,43.403870312500004,127.4107287109375,43.4195703125L126.1445287109375,43.731770312500004C124.9786287109375,44.0214703125,124.0521287109375,44.9050703125,123.7075287109375,46.0560703125L119.7961287109375,59.1258703125C119.7094987109375,59.4479703125,119.6714987109375,59.7811703125,119.68338871093749,60.1144703125L119.68338871093749,62.1265703125C119.7034587109375,62.4188703125,119.8837687109375,62.6759703125,120.1517187109375,62.7943703125C120.8743687109375,63.1591703125,121.7273287109375,63.1591703125,122.4500287109375,62.7943703125C122.7550287109375,62.6694703125,122.9419287109375,62.3591703125,122.9096287109375,62.0311703125L122.9096287109375,60.0624703125L126.8210287109375,46.992670312499996L126.9337287109375,46.8799703125L128.2000287109375,46.5677703125C129.2293287109375,46.3007703125,130.0756287109375,45.5698703125,130.4895287109375,44.5903703125C130.7896287109375,43.8450703125,130.8323287109375,43.0210703125,130.6110287109375,42.2487703125L130.14262871093752,40.5141703125C130.1248287109375,40.4726703125,130.1248287109375,40.4256703125,130.14262871093752,40.3840703125C130.1593287109375,40.3401703125,130.1998287109375,40.3096703125,130.2467287109375,40.3060703125L134.4270287109375,39.386770312500005C135.2650287109375,39.1844703125,135.9978287109375,38.6774703125,136.4824287109375,37.9643703125L139.6132287109375,33.2724703125L139.7520287109375,33.1944703125L145.3632287109375,33.1944703125C146.3031287109375,33.2632703125,147.1035287109375,32.5193703125,147.1035287109375,31.576970312500002C147.1035287109375,30.6345703125,146.3031287109375,29.8906403125,145.3632287109375,29.959500312499998L145.31992871093752,29.916140312499998Z" fill="#FFFFFF" fill-opacity="1" style="mix-blend-mode:passthrough"/></g><g><path d="M61.0472412109375,9.847683125L70.4224412109375,20.619203125L76.9356412109375,16.785803125L84.5763412109375,34.989903125L75.7127412109375,22.084903125L68.7832912109375,26.733403125L61.0472412109375,9.847683125ZM105.5729412109375,6.283203125L101.2192412109375,14.999273125L105.5729412109375,15.667073125L101.9997412109375,24.487203125L109.4843412109375,14.322803125L103.5608412109375,13.316773125000001L105.5729412109375,6.283203125ZM143.7675412109375,9.214583125L141.9809412109375,19.578503124999997L138.4078412109375,18.234203125L136.5431412109375,28.736803125L139.4485412109375,20.688603125L143.4726412109375,22.405803125L143.7675412109375,9.214583125ZM149.5001412109375,27.618103125L156.68984121093752,21.321703125L156.68984121093752,24.469903125L161.8672412109375,20.844703125000002L154.9032412109375,28.329203125L155.08544121093752,23.906103125L149.5001412109375,27.618103125ZM146.9417412109375,37.080003125000005L153.2294412109375,43.081503125L154.41764121093752,39.707803125L161.1912412109375,44.963503125L154.0707412109375,36.030603125L152.7785412109375,40.497003125L146.9417412109375,37.080003125000005ZM97.03034121093751,49.880903125L87.4729412109375,53.454103125L90.84664121093749,56.029903125L83.4575412109375,60.288103125L95.52124121093749,57.027203125L91.9047412109375,54.121903125L97.03034121093751,49.880903125Z" fill="#0070C6" fill-opacity="1" style="mix-blend-mode:passthrough"/></g><g style="opacity:0.5;"><path d="M61.0472412109375,9.847683125L70.4224412109375,20.619203125L76.9356412109375,16.785803125L84.5763412109375,34.989903125L75.7127412109375,22.084903125L68.7832912109375,26.733403125L61.0472412109375,9.847683125ZM105.5729412109375,6.283203125L101.2192412109375,14.999273125L105.5729412109375,15.667073125L101.9997412109375,24.487203125L109.4843412109375,14.322803125L103.5608412109375,13.316773125000001L105.5729412109375,6.283203125ZM143.7675412109375,9.214583125L141.9809412109375,19.578503124999997L138.4078412109375,18.234203125L136.5431412109375,28.736803125L139.4485412109375,20.688603125L143.4726412109375,22.405803125L143.7675412109375,9.214583125ZM149.5001412109375,27.618103125L156.68984121093752,21.321703125L156.68984121093752,24.469903125L161.8672412109375,20.844703125000002L154.9032412109375,28.329203125L155.08544121093752,23.906103125L149.5001412109375,27.618103125ZM146.9417412109375,37.080003125000005L153.2294412109375,43.081503125L154.41764121093752,39.707803125L161.1912412109375,44.963503125L154.0707412109375,36.030603125L152.7785412109375,40.497003125L146.9417412109375,37.080003125000005ZM97.03034121093751,49.880903125L87.4729412109375,53.454103125L90.84664121093749,56.029903125L83.4575412109375,60.288103125L95.52124121093749,57.027203125L91.9047412109375,54.121903125L97.03034121093751,49.880903125Z" fill="#FFFFFF" fill-opacity="1" style="mix-blend-mode:passthrough"/></g><g><path d="M231.8995626953125,289.629150390625L179.0567626953125,296.697390390625L186.3418426953125,314.727950390625L239.1933626953125,307.651050390625L231.8995626953125,289.629150390625Z" fill="#0070C6" fill-opacity="1" style="mix-blend-mode:passthrough"/></g><g style="opacity:0.20000000298023224;"><path d="M231.8995626953125,289.629150390625L211.3972626953125,305.257350390625L179.0567626953125,296.697390390625L231.8995626953125,289.629150390625Z" fill="#FFFFFF" fill-opacity="1" style="mix-blend-mode:passthrough"/></g><g style="opacity:0.10000000149011612;"><path d="M231.8995626953125,289.629150390625L239.1933626953125,307.651050390625L186.3418426953125,314.727950390625L179.0567626953125,296.697390390625L211.3972626953125,305.257350390625L231.8995626953125,289.629150390625Z" fill="#FFFFFF" fill-opacity="1" style="mix-blend-mode:passthrough"/></g><g><path d="M256.607950390625,226.933837890625L244.691650390625,244.079737890625L295.054050390625,255.900637890625L306.979050390625,238.754737890625L256.607950390625,226.933837890625Z" fill="#0070C6" fill-opacity="1" style="mix-blend-mode:passthrough"/></g><g style="opacity:0.30000001192092896;"><path d="M306.9791322265625,238.754737890625L274.6386322265625,244.695537890625L256.6080322265625,226.933837890625L306.9791322265625,238.754737890625Z" fill="#FFFFFF" fill-opacity="1" style="mix-blend-mode:passthrough"/></g><g style="opacity:0.10000000149011612;"><path d="M306.979050390625,238.754737890625L295.054050390625,255.900637890625L244.691650390625,244.079737890625L256.607950390625,226.933837890625L274.638550390625,244.695537890625L306.979050390625,238.754737890625Z" fill="#FFFFFF" fill-opacity="1" style="mix-blend-mode:passthrough"/></g><g><path d="M142.336376953125,256.98486328125L130.411376953125,274.13086328125L180.773776953125,285.95176328125L192.698776953125,268.80576328125L142.336376953125,256.98486328125Z" fill="#0070C6" fill-opacity="1" style="mix-blend-mode:passthrough"/></g><g style="opacity:0.30000001192092896;"><path d="M192.6989478515625,268.80576328125L160.3584478515625,274.74656328125L142.3365478515625,256.98486328125L192.6989478515625,268.80576328125Z" fill="#FFFFFF" fill-opacity="1" style="mix-blend-mode:passthrough"/></g><g style="opacity:0.10000000149011612;"><path d="M192.698776953125,268.80576328125L180.773776953125,285.95166328125L130.411376953125,274.13076328125L142.336376953125,256.98486328125L160.358276953125,274.74656328125L192.698776953125,268.80576328125Z" fill="#FFFFFF" fill-opacity="1" style="mix-blend-mode:passthrough"/></g><g><path d="M329.597462109375,249.0927734375L285.566162109375,267.4008734375L304.255862109375,282.4393734375L348.278462109375,264.1312734375L329.597462109375,249.0927734375Z" fill="#0070C6" fill-opacity="1" style="mix-blend-mode:passthrough"/></g><g style="opacity:0.5;"><path d="M329.597462109375,249.0927734375L321.072262109375,268.1033734375L285.566162109375,267.4008734375L329.597462109375,249.0927734375Z" fill="#FFFFFF" fill-opacity="1" style="mix-blend-mode:passthrough"/></g><g style="opacity:0.30000001192092896;"><path d="M329.597462109375,249.0927734375L348.278462109375,264.1312734375L304.255862109375,282.4393734375L285.566162109375,267.4008734375L321.072262109375,268.1033734375L329.597462109375,249.0927734375Z" fill="#FFFFFF" fill-opacity="1" style="mix-blend-mode:passthrough"/></g><g><path d="M245.2554494140625,256.98486328125L227.4156494140625,272.30086328125L272.4443494140625,289.94116328125L290.2754494140625,274.63386328125L245.2554494140625,256.98486328125Z" fill="#0070C6" fill-opacity="1" style="mix-blend-mode:passthrough"/></g><g style="opacity:0.20000000298023224;"><path d="M290.275615234375,274.63386328125L256.504115234375,276.52446328125L245.255615234375,256.98486328125L290.275615234375,274.63386328125Z" fill="#FFFFFF" fill-opacity="1" style="mix-blend-mode:passthrough"/></g><g style="opacity:0.10000000149011612;"><path d="M290.275571484375,274.63386328125L272.444471484375,289.94116328125L227.415771484375,272.30086328125L245.255571484375,256.98486328125L256.504071484375,276.52446328125L290.275571484375,274.63386328125Z" fill="#FFFFFF" fill-opacity="1" style="mix-blend-mode:passthrough"/></g><g><path d="M285.176097265625,333.2007765625L253.850297265625,329.5322265625L243.252197265625,360.3463265625L274.577997265625,364.0235265625L285.176097265625,333.2007765625Z" fill="#0070C6" fill-opacity="1" style="mix-blend-mode:passthrough"/></g><g style="opacity:0.5;"><path d="M253.850197265625,329.5322265625L269.998797265625,346.8603265625L243.252197265625,360.3463265625L253.850197265625,329.5322265625Z" fill="#FFFFFF" fill-opacity="1" style="mix-blend-mode:passthrough"/></g><g style="opacity:0.30000001192092896;"><path d="M274.577753125,364.0235265625L243.251953125,360.3463265625L269.998553125,346.8603265625L253.850053125,329.5322265625L285.175853125,333.2007765625L274.577753125,364.0235265625Z" fill="#FFFFFF" fill-opacity="1" style="mix-blend-mode:passthrough"/></g><g><path d="M230.47721503906251,350.97119140625L184.1129150390625,367.23249140625L200.7211150390625,383.07759140625L247.0854150390625,366.81629140625L230.47721503906251,350.97119140625Z" fill="#0070C6" fill-opacity="1" style="mix-blend-mode:passthrough"/></g><g style="opacity:0.5;"><path d="M230.47721503906251,350.97119140625L219.4195150390625,369.54819140625L184.1129150390625,367.23249140625L230.47721503906251,350.97119140625Z" fill="#FFFFFF" fill-opacity="1" style="mix-blend-mode:passthrough"/></g><g style="opacity:0.30000001192092896;"><path d="M230.47721503906251,350.97119140625L247.0854150390625,366.81629140625L200.7211150390625,383.07759140625L184.1129150390625,367.23249140625L219.4195150390625,369.54809140625L230.47721503906251,350.97119140625Z" fill="#FFFFFF" fill-opacity="1" style="mix-blend-mode:passthrough"/></g><g><path d="M272.210169140625,196.623046875L233.703369140625,218.859846875L256.217769140625,231.938346875L294.724569140625,209.710146875L272.210169140625,196.623046875Z" fill="#0070C6" fill-opacity="1" style="mix-blend-mode:passthrough"/></g><g style="opacity:0.5;"><path d="M233.703369140625,218.859846875L267.509569140625,217.029946875L272.210169140625,196.623046875L233.703369140625,218.859846875Z" fill="#FFFFFF" fill-opacity="1" style="mix-blend-mode:passthrough"/></g><g style="opacity:0.30000001192092896;"><path d="M233.703369140625,218.859846875L256.217769140625,231.938346875L294.724569140625,209.710146875L272.210169140625,196.623046875L267.509569140625,217.029946875L233.703369140625,218.859846875Z" fill="#FFFFFF" fill-opacity="1" style="mix-blend-mode:passthrough"/></g><g><path d="M221.3797357421875,256.5859375L181.0516357421875,275.3103375L202.3171357421875,290.34013749999997L242.6452357421875,271.6157375L221.3797357421875,256.5859375Z" fill="#0070C6" fill-opacity="1" style="mix-blend-mode:passthrough"/></g><g style="opacity:0.6000000238418579;"><path d="M181.0516357421875,275.3103375L214.8925357421875,276.4898375L221.3797357421875,256.5859375L181.0516357421875,275.3103375Z" fill="#FFFFFF" fill-opacity="1" style="mix-blend-mode:passthrough"/></g><g style="opacity:0.4000000059604645;"><path d="M181.0516357421875,275.3103375L202.3171357421875,290.34013749999997L242.6452357421875,271.6157375L221.3797357421875,256.5859375L214.8925357421875,276.4898375L181.0516357421875,275.3103375Z" fill="#FFFFFF" fill-opacity="1" style="mix-blend-mode:passthrough"/></g><g><path d="M293.07678046875003,247.30615234375L238.85498046875,248.75450234375L240.43341046875,267.23605234375L294.65518046875,265.78775234375L293.07678046875003,247.30615234375Z" fill="#0070C6" fill-opacity="1" style="mix-blend-mode:passthrough"/></g><g style="opacity:0.5;"><path d="M293.07668046875,247.30615234375L268.03868046875,260.54065234375L238.85498046875,248.75450234375L293.07668046875,247.30615234375Z" fill="#FFFFFF" fill-opacity="1" style="mix-blend-mode:passthrough"/></g><g style="opacity:0.30000001192092896;"><path d="M293.07678046875003,247.30615234375L294.65518046875,265.78765234375L240.43341046875,267.23605234375L238.85498046875,248.75448234375L268.03868046875,260.54065234375L293.07678046875003,247.30615234375Z" fill="#FFFFFF" fill-opacity="1" style="mix-blend-mode:passthrough"/></g><g><path d="M210.6340314453125,243.0478515625L156.4122314453125,244.4962015625L157.9906614453125,262.9777515625L212.20373144531248,261.5293515625L210.6340314453125,243.0478515625Z" fill="#0070C6" fill-opacity="1" style="mix-blend-mode:passthrough"/></g><g style="opacity:0.5;"><path d="M210.6339314453125,243.0478515625L185.5959314453125,256.2823515625L156.4122314453125,244.4962015625L210.6339314453125,243.0478515625Z" fill="#FFFFFF" fill-opacity="1" style="mix-blend-mode:passthrough"/></g><g style="opacity:0.30000001192092896;"><path d="M210.6340314453125,243.0478515625L212.20373144531248,261.5293515625L157.9906614453125,262.9777515625L156.4122314453125,244.4962015625L185.5959314453125,256.2823515625L210.6340314453125,243.0478515625Z" fill="#FFFFFF" fill-opacity="1" style="mix-blend-mode:passthrough"/></g><g><path d="M234.111153515625,327.85836921875L206.410453515625,318.64794921875L179.412353515625,345.87154921875L207.165053515625,355.13404921875L234.111153515625,327.85836921875ZM208.145053515625,324.51070921875L212.177853515625,337.99674921875L208.145053515625,324.51070921875Z" fill="#0070C6" fill-opacity="1" style="mix-blend-mode:passthrough"/></g><g style="opacity:0.20000000298023224;"><path d="M206.401664453125,318.6044921875L212.203764453125,337.9966921875L179.403564453125,345.8280921875L206.401664453125,318.6044921875Z" fill="#FFFFFF" fill-opacity="1" style="mix-blend-mode:passthrough"/></g><g style="opacity:0.10000000149011612;"><path d="M207.11286445312498,355.0818921875L179.403564453125,345.8280921875L212.203764453125,337.9966921875L206.401664453125,318.6044921875L234.110964453125,327.8582821875L207.11286445312498,355.0818921875Z" fill="#FFFFFF" fill-opacity="1" style="mix-blend-mode:passthrough"/></g><g><path d="M218.8039099609375,223.73388671875L203.6527099609375,253.89758671875L234.3367099609375,259.11858671875L249.4706099609375,228.94619671875L218.8039099609375,223.73388671875Z" fill="#0070C6" fill-opacity="1" style="mix-blend-mode:passthrough"/></g><g style="opacity:0.5;"><path d="M218.8039099609375,223.73388671875L232.3160099609375,241.79908671875L203.6527099609375,253.89758671875L218.8039099609375,223.73388671875Z" fill="#FFFFFF" fill-opacity="1" style="mix-blend-mode:passthrough"/></g><g style="opacity:0.30000001192092896;"><path d="M234.3367099609375,259.11848671875L203.6527099609375,253.89758671875L232.3160099609375,241.79908671875L218.8039099609375,223.73388671875L249.4706099609375,228.94618671875L234.3367099609375,259.11848671875Z" fill="#FFFFFF" fill-opacity="1" style="mix-blend-mode:passthrough"/></g><g><path d="M262.4188564453125,280.6962890625L235.1778564453125,290.3143090625L263.5376564453125,317.1823890625L290.7699564453125,307.5642890625L262.4188564453125,280.6962890625Z" fill="#0070C6" fill-opacity="1" style="mix-blend-mode:passthrough"/></g><g style="opacity:0.5;"><path d="M262.41863609375,280.6962890625L290.76969609375,307.5642890625L258.64599609375,301.15518906249997L262.41863609375,280.6962890625Z" fill="#FFFFFF" fill-opacity="1" style="mix-blend-mode:passthrough"/></g><g style="opacity:0.30000001192092896;"><path d="M262.4188564453125,280.6962890625L258.6461564453125,301.15518906249997L290.7699564453125,307.5642890625L263.5376564453125,317.1823890625L235.1778564453125,290.3143090625L262.4188564453125,280.6962890625Z" fill="#FFFFFF" fill-opacity="1" style="mix-blend-mode:passthrough"/></g><g><path d="M244.6136115234375,302.169677734375L206.1068115234375,324.406477734375L228.6212115234375,337.493577734375L267.1280115234375,315.256777734375L244.6136115234375,302.169677734375Z" fill="#0070C6" fill-opacity="1" style="mix-blend-mode:passthrough"/></g><g style="opacity:0.6000000238418579;"><path d="M206.1068115234375,324.406477734375L239.9130115234375,322.576577734375L244.6136115234375,302.169677734375L206.1068115234375,324.406477734375Z" fill="#FFFFFF" fill-opacity="1" style="mix-blend-mode:passthrough"/></g><g style="opacity:0.4000000059604645;"><path d="M206.1068115234375,324.406477734375L228.6212115234375,337.493577734375L267.1280115234375,315.256777734375L244.6136115234375,302.169677734375L239.9130115234375,322.576577734375L206.1068115234375,324.406477734375Z" fill="#FFFFFF" fill-opacity="1" style="mix-blend-mode:passthrough"/></g><g><path d="M156.637709765625,315.65576171875L128.885009765625,324.76210171875L155.753109765625,352.13316171875L183.514409765625,343.02686171875L156.637709765625,315.65576171875Z" fill="#0070C6" fill-opacity="1" style="mix-blend-mode:passthrough"/></g><g style="opacity:0.5;"><path d="M160.653109765625,331.76106703125L155.753009765625,352.13330703125L128.885009765625,324.76220703125L160.653109765625,331.76106703125Z" fill="#FFFFFF" fill-opacity="1" style="mix-blend-mode:passthrough"/></g><g style="opacity:0.30000001192092896;"><path d="M156.637709765625,315.65576171875L183.514409765625,343.02686171875L155.753009765625,352.13316171875L128.885009765625,324.76210171875L155.753009765625,352.13316171875L160.653109765625,331.76096171875L128.885009765625,324.76210171875L156.637709765625,315.65576171875Z" fill="#FFFFFF" fill-opacity="1" style="mix-blend-mode:passthrough"/></g><g><path d="M184.0783044921875,301.857666015625L152.6571044921875,305.135946015625L162.4225744921875,336.08016601562497L193.8438044921875,332.810566015625L184.0783044921875,301.857666015625Z" fill="#0070C6" fill-opacity="1" style="mix-blend-mode:passthrough"/></g><g style="opacity:0.6000000238418579;"><path d="M184.078228515625,301.857666015625L193.843728515625,332.810566015625L167.834228515625,320.122366015625L184.078228515625,301.857666015625Z" fill="#FFFFFF" fill-opacity="1" style="mix-blend-mode:passthrough"/></g><g style="opacity:0.4000000059604645;"><path d="M184.0783044921875,301.857666015625L167.8343044921875,320.122366015625L193.8438044921875,332.810566015625L162.4225744921875,336.08016601562497L152.6571044921875,305.135976015625L184.0783044921875,301.857666015625Z" fill="#FFFFFF" fill-opacity="1" style="mix-blend-mode:passthrough"/></g><g><path d="M150.8269068359375,333.348272421875L123.10900683593749,324.094482421875L128.91100683593748,343.486682421875L123.10900683593749,324.094482421875L96.1195068359375,351.318082421875L123.8288068359375,360.580582421875L150.8269068359375,333.348272421875Z" fill="#0070C6" fill-opacity="1" style="mix-blend-mode:passthrough"/></g><g style="opacity:0.6000000238418579;"><path d="M123.10900683593749,324.094482421875L128.91100683593748,343.486682421875L96.1195068359375,351.318082421875L123.10900683593749,324.094482421875Z" fill="#FFFFFF" fill-opacity="1" style="mix-blend-mode:passthrough"/></g><g style="opacity:0.4000000059604645;"><path d="M123.8288068359375,360.580582421875L96.1195068359375,351.318082421875L128.91100683593748,343.486682421875L123.10900683593749,324.094482421875L150.8269068359375,333.348272421875L123.8288068359375,360.580582421875Z" fill="#FFFFFF" fill-opacity="1" style="mix-blend-mode:passthrough"/></g><g><path d="M91.90455878906249,279.863525390625L69.3902587890625,292.941925390625L107.9057587890625,315.178825390625L130.4114587890625,302.091725390625L91.90455878906249,279.863525390625Z" fill="#0070C6" fill-opacity="1" style="mix-blend-mode:passthrough"/></g><g style="opacity:0.20000000298023224;"><path d="M130.411341015625,302.091725390625L96.605151015625,300.261725390625L91.904541015625,279.863525390625L130.411341015625,302.091725390625Z" fill="#FFFFFF" fill-opacity="1" style="mix-blend-mode:passthrough"/></g><g style="opacity:0.10000000149011612;"><path d="M130.4114587890625,302.091625390625L107.9057587890625,315.178825390625L69.3902587890625,292.941925390625L91.90455878906249,279.863525390625L96.6052587890625,300.261725390625L130.4114587890625,302.091625390625Z" fill="#FFFFFF" fill-opacity="1" style="mix-blend-mode:passthrough"/></g><g><path d="M94.567246875,296.410888671875L63.623046875,300.938038671875L77.091746875,331.422588671875L108.03594687500001,326.895488671875L94.567246875,296.410888671875Z" fill="#0070C6" fill-opacity="1" style="mix-blend-mode:passthrough"/></g><g style="opacity:0.5;"><path d="M94.567191015625,296.410888671875L108.035891015625,326.895488671875L80.560791015625,315.291388671875L94.567191015625,296.410888671875Z" fill="#FFFFFF" fill-opacity="1" style="mix-blend-mode:passthrough"/></g><g style="opacity:0.30000001192092896;"><path d="M94.567246875,296.410888671875L80.560846875,315.291388671875L108.03594687500001,326.895488671875L77.091746875,331.422588671875L63.623046875,300.938038671875L94.567246875,296.410888671875Z" fill="#FFFFFF" fill-opacity="1" style="mix-blend-mode:passthrough"/></g><g><path d="M181.7191654296875,282.257080078125L127.6795654296875,285.110400078125L130.6803254296875,303.539880078125L184.7199654296875,300.686580078125L181.7191654296875,282.257080078125Z" fill="#0070C6" fill-opacity="1" style="mix-blend-mode:passthrough"/></g><g style="opacity:0.6000000238418579;"><path d="M181.7191654296875,282.257080078125L157.7304654296875,296.133380078125L127.6795654296875,285.110400078125L181.7191654296875,282.257080078125Z" fill="#FFFFFF" fill-opacity="1" style="mix-blend-mode:passthrough"/></g><g style="opacity:0.30000001192092896;"><path d="M181.7191654296875,282.257080078125L184.7199654296875,300.686580078125L130.6803254296875,303.539880078125L127.6795654296875,285.110400078125L157.7304654296875,296.133380078125L181.7191654296875,282.257080078125Z" fill="#FFFFFF" fill-opacity="1" style="mix-blend-mode:passthrough"/></g><g style="opacity:0.10000000149011612;"><path d="M179.152165625,229.8564453125L171.181865625,234.4616553125L156.134765625,243.1430453125L195.318065625,258.4850453125L213.149165625,243.1690453125L179.152165625,229.8564453125Z" fill="#000000" fill-opacity="1" style="mix-blend-mode:passthrough"/></g><g><path d="M181.8491201171875,228.321533203125L173.8702201171875,232.918073203125L158.8231201171875,241.599433203125L195.3178201171875,255.90073320312501L213.14892011718752,240.584733203125L181.8491201171875,228.321533203125Z" fill="#0070C6" fill-opacity="1" style="mix-blend-mode:passthrough"/></g><g style="opacity:0.6000000238418579;"><path d="M179.37776546875,242.475433203125L213.14930546875001,240.584733203125L181.84949546875,228.321533203125L173.87060546875,232.918063203125L179.37776546875,242.475433203125Z" fill="#FFFFFF" fill-opacity="1" style="mix-blend-mode:passthrough"/></g><g style="opacity:0.4000000059604645;"><path d="M213.14928632812502,240.584882890625L179.377786328125,242.475532890625L173.870586328125,232.918212890625L158.823486328125,241.599592890625L195.318286328125,255.900912890625L213.14928632812502,240.584882890625Z" fill="#FFFFFF" fill-opacity="1" style="mix-blend-mode:passthrough"/></g><g><path d="M346.2578619140625,174.92367421875L347.4112619140625,155.38407421875002C347.7393619140625,149.97607421875,345.3321619140625,144.76428421875,341.0021719140625,141.50775421875L333.9859619140625,136.22607421875L335.0093419140625,178.14997421875L346.2578619140625,174.92367421875Z" fill="#0070C6" fill-opacity="1" style="mix-blend-mode:passthrough"/></g><g style="opacity:0.10000000149011612;"><path d="M346.2578619140625,174.92367421875L347.4112619140625,155.38407421875002C347.7393619140625,149.97607421875,345.3321619140625,144.76428421875,341.0021719140625,141.50775421875L333.9859619140625,136.22607421875L335.0093419140625,178.14997421875L346.2578619140625,174.92367421875Z" fill="#000000" fill-opacity="1" style="mix-blend-mode:passthrough"/></g><g style="opacity:0.10000000149011612;"><path d="M335.3475341796875,153.545654296875C338.7195741796875,154.697504296875,342.2106841796875,155.465544296875,345.7547341796875,155.835244296875C344.0970341796875,157.098204296875,341.9907641796875,157.619284296875,339.9353741796875,157.274914296875C337.9522441796875,156.727364296875,336.2886451796875,155.375094296875,335.3475341796875,153.545654296875Z" fill="#000000" fill-opacity="1" style="mix-blend-mode:passthrough"/></g><g><path d="M322.364616796875,325.95914578125C321.792216796875,327.75438578125,319.814816796875,328.78645578125,317.932816796875,328.93388578125C316.045716796875,328.93412578125,314.166116796875,328.69515578125,312.338916796875,328.22270578125C308.176016796875,327.46816578125,304.160616796875,328.22270578125,300.015036796875,328.11865578125C298.652456796875,328.12832578125,297.293326796875,327.97988578125,295.964896796875,327.67634578125C294.625216796875,327.36796578125,293.413596796875,326.65308578125,292.495826796875,325.62958578125C291.978648796875,325.00706578125,291.634635796875,324.25924178125,291.498460996875,323.46142578125C291.334237796875,324.68212578125,291.696866796875,325.91506578125,292.495826796875,326.85245578125C293.416556796875,327.87052578125,294.627336796875,328.58185578125,295.964896796875,328.89054578125C297.293326796875,329.19405578125,298.652456796875,329.34249578125,300.015036796875,329.33285578125C304.160616796875,329.42824578125,308.176016796875,328.68239578125,312.338916796875,329.43690578125C314.164816796875,329.91641578125,316.045016796875,330.15834578125,317.932816796875,330.15674578125C319.814816796875,330.00062578125,321.792216796875,328.97724578125,322.364616796875,327.17331578125C322.543816796875,326.55112578125,322.593916796875,325.89891578125,322.512016796875,325.25663578125C322.479516796875,325.49396578125,322.430316796875,325.72871578125,322.364616796875,325.95914578125Z" fill="#263238" fill-opacity="1" style="mix-blend-mode:passthrough"/></g><g><path d="M322.2604984375,322.507396171875L321.4886984375,318.726086171875C321.3947984375,318.053076171875,321.1771984375,317.403236171875,320.8468984375,316.809406171875C320.5099984375,316.199302171875,319.86099843750003,315.827980171875,319.1643984375,315.846752171875C316.8920984375,315.543209171875,313.6831984375,314.719286171875,311.7925984375,316.020191171875C308.7988984375,318.069196171875,305.2276984375,319.105606171875,301.6020984375,318.977576171875C299.7201584375,318.908186171875,297.8381884375,318.517916171875,295.9648684375,318.752076171875C294.0915584375,318.986236171875,292.1575534375,320.018306171875,291.6285124375,321.822206171875C291.4756311075,322.354756171875,291.4430514375,322.914656171875,291.5331155375,323.461356171875C291.6692904375,324.259176171875,292.0133034375,325.007026171875,292.5304784375,325.629526171875C293.4482584375,326.653026171875,294.6598984375,327.367826171875,295.9995484375,327.676326171875C297.3279784375,327.979826171875,298.6871084375,328.128226171875,300.0496884375,328.118626171875C304.1952984375,328.214026171875,308.2106984375,327.468126171875,312.3735984375,328.222626171875C314.1987984375,328.694926171875,316.0783984375,328.933826171875,317.9674984375,328.933826171875C319.8494984375,328.786426171875,321.8268984375,327.754326171875,322.3992984375,325.959126171875C322.4649984375,325.728726171875,322.5141984375,325.493926171875,322.5466984375,325.256596171875C322.5938984375,324.330926171875,322.4973984375,323.403506171875,322.2604984375,322.507396171875Z" fill="#37474F" fill-opacity="1" style="mix-blend-mode:passthrough"/></g><g><path d="M311.237399984375,312.056640625L311.081282654375,316.982730625C311.041213084375,318.030310625,311.839521984375,318.920710625,312.885213984375,318.994810625C314.536513984375,319.124910625,316.194713984375,319.124910625,317.846013984375,318.994810625C319.215743984375,318.866530625,320.291183984375,317.765380625,320.387103984375,316.393000625L320.586583984375,312.750460625L311.237399984375,312.056640625Z" fill="#FFA8A7" fill-opacity="1" style="mix-blend-mode:passthrough"/></g><g><path d="M343.439099609375,309.43758046875C343.415699609375,310.16548046875,343.187199609375,310.87188046875,342.779999609375,311.47568046875C342.192199609375,312.18258046875,341.364899609375,312.64868046875,340.455699609375,312.78518046875C338.236899609375,313.16208046875,335.997699609375,312.23948046875,334.688409609375,310.40888046875C334.063969609375,309.54168046875,333.708399609375,308.45758046875,333.127329609375,307.53828046875C332.238859609375,306.30995046875,331.144379609375,305.24481046875,329.892419609375,304.39003046875C328.639289609375,303.53800046875,327.537159609375,302.48278046875,326.631499609375,301.26787046875C325.767164609375,300.06067046875,325.537904609375,298.51074046875,326.015718609375,297.10498046875C325.893352609375,297.26985146875,325.788709609375,297.44717446875,325.703515609375,297.63402246875C325.148058609375,299.11712046875,325.369273409375,300.77958046875,326.293246609375,302.06578046875C327.213679609375,303.31567046875,328.336299609375,304.40313046875,329.614889609375,305.28337046875C330.896899609375,306.16379046875,332.015149609375,307.26148046875,332.919179609375,308.52698046875C333.517609609375,309.47228046875,333.87317960937503,310.55638046875,334.506279609375,311.48438046875C335.828299609375,313.36828046875,338.118299609375,314.32078046875,340.386399609375,313.93008046875C341.317999609375,313.79268046875,342.165099609375,313.31348046875,342.762699609375,312.58578046875C343.294699609375,311.74068046875,343.535399609375,310.74458046875,343.447799609375,309.74978046875C343.439199609375,309.64578046875,343.439199609375,309.54168046875,343.439099609375,309.43758046875Z" fill="#263238" fill-opacity="1" style="mix-blend-mode:passthrough"/></g><g><path d="M341.89555,303.2626046875C340.40385,300.6607946875,337.31635,298.7267846875,334.95738,296.8708246875C333.65567,295.7383046875,332.05252,295.0090686875,330.34349,294.7720418875C328.58548,294.5486386875,326.86844,295.4174706875,326.007128,296.9662546875C326.007128,297.0096146875,326.007128,297.0616446875,325.96376,297.1050146875C325.485977,298.5107846875,325.71523621,300.0606746875,326.579537,301.2679046875C327.4852,302.4828146875,328.58733,303.5380346875,329.84046,304.3900646875C331.09242,305.2449046875,332.18687,306.3100046875,333.07537,307.5383046875C333.65644,308.4576046875,334.01201,309.5156046875,334.63645,310.4089046875C335.94575,312.2395046875,338.18495,313.1621046875,340.40375,312.7853046875C341.31295,312.6487046875,342.14025,312.1826046875,342.72805,311.4757046875C343.13525,310.8719046875,343.36375,310.1655046875,343.38715,309.4376046875L343.38715,308.7264046875C343.35695,306.8088046875,342.84395,304.9296046875,341.89555,303.2626046875Z" fill="#37474F" fill-opacity="1" style="mix-blend-mode:passthrough"/></g><g><path d="M335.408203125,300.981689453125L335.408203125,305.456809453125C337.631353125,306.496649453125,340.222533125,306.383289453125,342.346373125,305.153269453125L342.762663125,301.120453453125L335.408203125,300.981689453125Z" fill="#FFA8A7" fill-opacity="1" style="mix-blend-mode:passthrough"/></g><g><path d="M343.96832812499997,219.779052734375C345.30392812499997,223.811852734375,343.656128125,242.935152734375,342.875628125,261.286652734375C345.780928125,268.224752734375,345.867728125,288.09395273437497,344.185128125,302.048352734375Q338.495828125,303.782952734375,333.240228125,301.970352734375L328.556928125,263.272652734375L327.637628125,241.460852734375Q325.981128125,260.809652734375,324.081828125,273.228952734375C325.868428125,282.768952734375,326.059228125,284.737652734375,321.644828125,313.990652734375Q314.481128125,316.150152734375,309.112728125,313.513652734375C306.614978125,272.422352734375,309.520358125,235.233852734375,309.979988125,221.765102734375L343.96832812499997,219.779052734375Z" fill="#455A64" fill-opacity="1" style="mix-blend-mode:passthrough"/></g><g style="opacity:0.30000001192092896;"><path d="M328.1925042734375,254.781983203125L327.4466552734375,236.985613203125C332.0431952734375,236.985613203125,336.3188252734375,233.516533203125,339.5884552734375,230.290283203125Q336.4662852734375,235.840813203125,330.4300852734375,238.303863203125L328.1925042734375,254.781983203125Z" fill="#000000" fill-opacity="1" style="mix-blend-mode:passthrough"/></g><g><path d="M309.4335638046875,183.986759375L309.2947998046875,222.892559375C329.8056998046875,231.487159375,343.1183998046875,223.759759375,344.9135998046875,219.683659375C343.9682998046875,205.50375937500002,347.3158998046875,188.912859375,347.0557998046875,181.861959375C346.7955998046875,174.811039375,345.9369998046875,166.866829375,335.0093998046875,168.462618375L323.3878998046875,169.598749375L317.4904798046875,171.029739375L309.4335638046875,183.986759375Z" fill="#0070C6" fill-opacity="1" style="mix-blend-mode:passthrough"/></g><g><path d="M335.0092142578125,162.894686328125C335.8390142578125,162.948386328125,336.6562142578125,162.670886328125,337.2815142578125,162.122786328125C337.7590142578125,161.593886328125,337.9584142578125,160.870286328125,337.8192142578125,160.171486328125C338.5189142578125,160.037786328125,339.1051142578125,159.562286328125,339.38031425781253,158.905286328125C339.5958142578125,158.178886328125,339.4612142578125,157.393586328125,339.0160142578125,156.780386328125C340.0227142578125,156.519686328125,340.8653142578125,155.832286328125,341.3230142578125,154.898486328125C341.7934142578125,153.939686328125,341.8312142578125,152.825486328125,341.4270142578125,151.836986328125C342.5413142578125,151.540986328125,343.4217142578125,150.686986328125,343.7513142578125,149.582086328125C344.0972142578125,148.436886328125,343.8501142578125,147.194686328125,343.0922142578125,146.269086328125C344.0503142578125,144.983186328125,344.2487142578125,143.283386328125,343.6125142578125,141.811386328125C342.8821142578125,140.333376328125,341.4308142578125,139.346096328125,339.7879142578125,139.209536328125C340.0187142578125,137.670766328125,339.4538142578125,136.119906328125,338.2875142578125,135.089996328125C337.1171142578125,134.102846328125,335.5194142578125,133.791186328125,334.0639142578125,134.266086328125C332.9212142578125,131.510474328125,329.2960142578125,130.887677328125,327.2992142578125,133.103946328125C326.6110142578125,132.331369328125,325.5840142578125,131.951116328125,324.5586142578125,132.089241328125C323.5164742578125,132.199262328125,322.5937342578125,132.811196328125,322.08688425781247,133.728376328125C319.2602542578125,132.441229328125,316.0723542578125,134.597876328125,316.2154542578125,137.700486328125C315.1564202578125,138.021716328125,314.4450619578125,139.014076328125,314.4809088178125,140.120166328125C314.5706954578125,141.256506328125,315.3897482578125,142.202086328125,316.5016442578125,142.453086328125C317.5299542578125,148.012086328125,319.3648342578125,153.391086328125,321.9481242578125,158.419586328125C323.1016042578125,160.665786328125,324.5499142578125,162.938086328125,326.7528142578125,164.100186328125C329.1465142578125,165.38378632812498,332.9364142578125,164.663986328125,335.0092142578125,162.894686328125Z" fill="#455A64" fill-opacity="1" style="mix-blend-mode:passthrough"/></g><g><path d="M315.6519637890625,149.764404296875L313.2496337890625,153.953324296875L315.8861537890625,154.924674296875L315.6519637890625,149.764404296875Z" fill="#F28F8F" fill-opacity="1" style="mix-blend-mode:passthrough"/></g><g><path d="M316.4843546875,142.479248046875C314.8872106875,148.273128046875,314.6497826875,154.357548046875,315.7905326875,160.258348046875C315.9164436875,161.276548046875,316.2983646875,162.246248046875,316.9006446875,163.076948046875C317.6954046875,163.926348046875,318.7912846875,164.430648046875,319.9534246875,164.481948046875C321.1192946875,164.526848046875,322.2859346875,164.416048046875,323.4224946875,164.152348046875L323.4224946875,169.598848046875C327.5507546875,170.570148046875,331.8003546875,170.951748046875,335.0439546875,168.462648046875L335.0439546875,162.894848046875C332.7126546875,163.638748046875,330.2328546875,163.790748046875,327.8282546875,163.337148046875C324.9749146875,161.802048046875,324.4025046875,156.589748046875,324.8014746875,155.210748046875C325.3209546875,155.894048046875,326.1981546875,156.201148046875,327.0303546875,155.991348046875C327.8259546875,155.782148046875,328.4984546875,155.251048046875,328.8863546875,154.525648046875C329.2676546875,153.806948046875,329.5034546875,153.020048046875,329.5801546875,152.210038046875C329.7812546875,151.232968046875,329.6307546875,150.216278046875,329.1551546875,149.339378046875C328.4078546875,148.339458046875,327.1208546875,147.904688046875,325.9202546875,148.246618046875C324.7474746875,148.613518046875,323.7680746875,149.430698046875,323.1970546875,150.518868046875C323.0134746875,150.853978046875,322.8540646875,151.201778046875,322.7200446875,151.559598046875C322.6232846875,151.849778046875,322.3351546875,152.031328046875,322.0316446875,151.993388046875C321.7281346875,151.955438046875,321.4935446875,151.708568046875,321.4711646875,151.403498046875C321.3217346875,149.839798046875,321.6036746875,148.265028046875,322.2863946875,146.850328046875C321.3324646875,146.750298046875,320.4749446875,146.224308046875,319.9534246875,145.419338046875C319.4090946875,144.668368046875,319.2425846875,143.707888046875,319.5024546875,142.817528046875C318.4843146875,142.884459046875,317.4623946875,142.769937046875,316.4843546875,142.479248046875Z" fill="#FFA8A7" fill-opacity="1" style="mix-blend-mode:passthrough"/></g><g><path d="M319.7801548046875,150.258672265625C323.6156148046875,150.379672265625,327.3191248046875,148.851572265625,329.9532248046875,146.061072265625C330.3340248046875,145.663572265625,330.4049248046875,145.061672265625,330.1266248046875,144.586672265625C329.7633248046875,143.982972265625,328.9597248046875,143.822272265625,328.3921248046875,144.239772265625C327.2795248046875,145.11027226562499,325.9575248046875,145.672572265625,324.5587848046875,145.870172265625C324.6541848046875,143.849472265625,327.4555248046875,139.912072265625,328.8951248046875,138.489742265625C329.3519248046875,138.154652265625,329.6869248046875,137.679612265625,329.8491248046875,137.136792265625C329.8949248046875,136.774532265625,329.7623248046875,136.412552265625,329.4935248046875,136.165452265625C329.2394248046875,135.910912265625,328.8749248046875,135.800262265625,328.5222248046875,135.870582265625C328.8705248046875,135.728672265625,329.0877248046875,135.378402265625,329.0599248046875,135.003312265625C328.9929248046875,134.621412265625,328.7239248046875,134.305966265625,328.3574248046875,134.179400265625C328.0060248046875,134.027444265625,327.6074248046875,134.027444265625,327.2560248046875,134.179400265625C327.2005248046875,133.854120265625,326.9651248046875,133.588543265625,326.6489248046875,133.494256265625C326.3394248046875,133.390468565625,326.0044248046875,133.390468565625,325.6949248046875,133.494256265625C325.3775248046875,133.603931265625,325.0722948046875,133.746348265625,324.7843148046875,133.919217265625C324.4254148046875,133.411243165625,323.7602648046875,133.223270265625,323.1885248046875,133.468234265625C319.5373248046875,135.324192265625,315.1576004046875,141.273672265625,315.1229248046875,145.367172265625C315.2145917046875,147.940972265625,317.2140048046875,150.040872265625,319.7801548046875,150.258672265625Z" fill="#FFA8A7" fill-opacity="1" style="mix-blend-mode:passthrough"/></g><g><path d="M328.4788578125,135.8010884375C326.4289578125,136.7897084375,324.78366781249997,138.4564384375,323.8216278125,140.5190284375C324.1598778125,137.3881784375,327.2386578125,135.9398484375,328.4788578125,135.8010884375ZM327.2126578125,134.0838904375C324.1251978125,135.5495684375,322.7635678125,137.0846384375,321.9223278125,138.4202484375C322.8318478125,136.1679084375,324.8256178125,134.5336634375,327.2126578125,134.0838904375ZM324.7409478125,133.8583984375C322.9718978125,134.6061504375,321.4526478125,135.8426184375,320.3612178125,137.4228884375C321.0512778125,135.5174084375,322.7349978125,134.1470844375,324.7409478125,133.8583984375ZM325.9117578125,148.2116984375C323.8958178125,149.1789984375,321.6354878125,149.5173984375,319.42460781249997,149.1830984375C319.0978178125,147.9194984375,318.3817478125,146.7907984375,317.3778478125,145.9567984375C316.7154378125,145.4076984375,315.9438518125,145.0056984375,315.1142578125,144.7772984375L315.1142578125,145.3063984375C315.1778760125,147.9188984375,317.2092178125,150.0588984375,319.8148478125,150.2584984375C323.6383478125,150.3695984375,327.3272578125,148.8421984375,329.9532578125,146.0608984375C330.3187578125,145.6818984375,330.3959578125,145.1095984375,330.1440578125,144.6471984375C329.0531578125,146.1702984375,327.5981578125,147.3956984375,325.9117578125,148.2116984375Z" fill="#F28F8F" fill-opacity="1" style="mix-blend-mode:passthrough"/></g><g style="opacity:0.20000000298023224;"><path d="M320.63009375,182.486572265625C317.16098375,182.547277665625,313.69188375,182.720732265625,310.16208975,182.850820265625L309.43359375,184.030312265625L309.43359375,191.315392265625C314.32695375,190.255282265625,318.45800375,186.997792265625,320.63009375,182.486572265625Z" fill="#000000" fill-opacity="1" style="mix-blend-mode:passthrough"/></g><g><path d="M320.9681541015625,170.179812890625L297.7946541015625,163.614612890625L318.2015541015625,153.866482890625C321.1676541015625,148.437362890625,315.7298541015625,143.814810890625,311.1159541015625,144.482616990625L287.5174941015625,156.138712890625C283.9796941015625,157.763012890625,281.7130807515625,161.300212890625,281.7154541015625,165.193012890625C281.7144369515625,169.137712890625,284.0404141015625,172.711712890625,287.6476041015625,174.308012890625L314.5329541015625,186.22431289062501C322.6246541015625,188.938912890625,328.2792541015625,172.252612890625,320.9681541015625,170.179812890625Z" fill="#0070C6" fill-opacity="1" style="mix-blend-mode:passthrough"/></g><g style="opacity:0.20000000298023224;"><path d="M297.794760234375,163.614617421875L291.177490234375,161.732643421875C294.600850234375,161.036280021875,298.110790234375,160.869559421875,301.584690234375,161.238292421875L302.556090234375,161.342365421875L297.794760234375,163.614617421875Z" fill="#000000" fill-opacity="1" style="mix-blend-mode:passthrough"/></g></g></svg>